<svg width="580" height="180" xmlns="http://www.w3.org/2000/svg">

 <g>
  <title>background</title>
  <rect fill="none" id="canvas_background" height="182" width="582" y="-1" x="-1"/>
 </g>
 <g>
  <title>Layer 1</title>
  <g id="svg_1">
   <g id="svg_2">
    <g id="svg_3">
     <path id="svg_4" d="m68.3,59.6l-26.8,0l0,73.2l-14.7,0l0,-73.2l-22.6,0l-4.2,-14.6l68.3,0l0,14.6z"/>
     <path id="svg_5" d="m88.5,45l14.6,0l0,36.6l39.1,0l0,-36.6l14.6,0l0,87.9l-14.6,0l0,-36.6l-39.1,0l0,36.6l-14.6,0l0,-87.9z"/>
     <path id="svg_6" d="m225.2,59.6l-29.2,0l0,22l24.4,0l0,14.6l-24.4,0l0,22l34.2,0l-4.9,14.6l-43.9,0l0,-87.8l48.8,0l-5,14.6z"/>
    </g>
   </g>
   <g id="svg_7">
    <g id="svg_8">
     <path id="svg_9" d="m313.8,45l0,87.9l-14.6,0l0,-87.9l14.6,0z"/>
     <path id="svg_10" d="m368.1,45c24,0.3 43.4,19.9 43.4,43.9c0,24 -19.3,43.6 -43.4,43.9l-25,0l0,-87.8l25,0zm0,14.6l-10.3,0l0,58.6l10.3,0c15.9,-0.3 28.7,-13.4 28.7,-29.3c0,-16 -12.8,-29 -28.7,-29.3z"/>
     <path id="svg_11" d="m479.8,59.6l-29.3,0l0,22l24.4,0l0,14.6l-24.4,0l0,22l34.2,0l-4.9,14.6l-43.9,0l0,-87.8l48.8,0l-4.9,14.6z"/>
     <path id="svg_12" d="m579.9,132.9l-17.1,0l-6,-14.6l-32,0l-6,14.6l-17.1,0l39.2,-87.9l39,87.9zm-49,-29.3l19.9,0l-10,-24.4l-9.9,24.4z"/>
    </g>
   </g>
   <circle fill="#ed3434" id="svg_14" r="12.7" cy="15.2" cx="306.4"/>
  </g>
 </g>
</svg>