<?xml version="1.0" encoding="utf-8"?>
<!-- Generator: Adobe Illustrator 18.0.0, SVG Export Plug-In . SVG Version: 6.00 Build 0)  -->
<!DOCTYPE svg PUBLIC "-//W3C//DTD SVG 1.1//EN" "http://www.w3.org/Graphics/SVG/1.1/DTD/svg11.dtd">
<svg version="1.1" id="Layer_1" xmlns="http://www.w3.org/2000/svg" xmlns:xlink="http://www.w3.org/1999/xlink" x="0px" y="0px"
	 viewBox="0 0 512 512" enable-background="new 0 0 512 512" xml:space="preserve">
<g>
	<g>
		<g>
			<path d="M465.4,380.2c-33.4,0-66.7,0-100.1,0c-64.2,0-128.4,0-192.6,0c-41.2,0-82.4,0-123.5,0c-9.7,0-17.7-3.7-22.4-12.7
				c-2-3.9-1.9-8.3-1.9-12.6c0-5.2,0-10.3,0-15.5c0-26.9,0-53.7,0-80.6c0-12.6,9.3-22.8,22.2-22.8c3.7,0,7.3,0,11,0
				c19.2,0,38.4,0,57.6,0c62.5,0,125,0,187.5,0c49.7,0,99.4,0,149.1,0c4.1,0,8.2,0,12.3,0c12.4,0,22.6,9.3,22.6,21.9
				c0,25.7,0,51.5,0,77.2c0,7.4,0,14.8,0,22.1C487.1,369.9,478.1,379.9,465.4,380.2c-9.7,0.2-9.7,15.2,0,15
				c20.8-0.5,36.7-17,36.7-37.8c0-11,0-22,0-33.1c0-15.8,0-31.7,0-47.5c0-9.8,1.2-20.8-1.8-30.3c-4.8-15.6-19.9-25.5-35.9-25.5
				c-4.1,0-8.2,0-12.3,0c-19.9,0-39.8,0-59.6,0c-62.8,0-125.6,0-188.5,0c-48.7,0-97.4,0-146.1,0c-3.7,0-7.3,0-11,0
				c-18.7,0-34.7,14-36.9,32.7c-1,8.9-0.3,18.3-0.3,27.3c0,16,0,32,0,48c0,9.7,0,19.5,0,29.2c0,20.1,16.6,36.9,36.8,36.9
				c10.3,0,20.7,0,31,0c56.3,0,112.5,0,168.8,0c58.8,0,117.7,0,176.5,0c14.1,0,28.3,0,42.4,0C475.1,395.2,475.1,380.2,465.4,380.2z"
				/>
		</g>
	</g>
	<g>
		<g>
			<path d="M94.7,481.9c-15,0-29.9,0-44.9,0c2.5,2.5,5,5,7.5,7.5c0-33.9,0-67.8,0-101.7c-2.5,2.5-5,5-7.5,7.5c15,0,29.9,0,44.9,0
				c-2.5-2.5-5-5-7.5-7.5c0,33.9,0,67.8,0,101.7c0,9.7,15,9.7,15,0c0-33.9,0-67.8,0-101.7c0-4.1-3.4-7.5-7.5-7.5
				c-15,0-29.9,0-44.9,0c-4.1,0-7.5,3.4-7.5,7.5c0,33.9,0,67.8,0,101.7c0,4.1,3.4,7.5,7.5,7.5c15,0,29.9,0,44.9,0
				C104.4,496.9,104.4,481.9,94.7,481.9z"/>
		</g>
	</g>
	<g>
		<g>
			<path d="M462.2,481.9c-15,0-29.9,0-44.9,0c2.5,2.5,5,5,7.5,7.5c0-33.9,0-67.8,0-101.7c-2.5,2.5-5,5-7.5,7.5c15,0,29.9,0,44.9,0
				c-2.5-2.5-5-5-7.5-7.5c0,33.9,0,67.8,0,101.7c0,9.7,15,9.7,15,0c0-33.9,0-67.8,0-101.7c0-4.1-3.4-7.5-7.5-7.5
				c-15,0-29.9,0-44.9,0c-4.1,0-7.5,3.4-7.5,7.5c0,33.9,0,67.8,0,101.7c0,4.1,3.4,7.5,7.5,7.5c15,0,29.9,0,44.9,0
				C471.8,496.9,471.8,481.9,462.2,481.9z"/>
		</g>
	</g>
	<g>
		<g>
			<path d="M248.5,228.6c0,49.3,0,98.5,0,147.8c0,3.8,0,7.6,0,11.3c0,9.7,15,9.7,15,0c0-49.3,0-98.5,0-147.8c0-3.8,0-7.6,0-11.3
				C263.5,218.9,248.5,218.9,248.5,228.6L248.5,228.6z"/>
		</g>
	</g>
	<g>
		<g>
			<path d="M94.7,315.6c19.4,0,38.8,0,58.3,0c9.7,0,9.7-15,0-15c-19.4,0-38.8,0-58.3,0C85,300.6,85,315.6,94.7,315.6L94.7,315.6z"/>
		</g>
	</g>
	<g>
		<g>
			<path d="M347.6,315.6c19.4,0,38.8,0,58.3,0c9.7,0,9.7-15,0-15c-19.4,0-38.8,0-58.3,0C337.9,300.6,337.9,315.6,347.6,315.6
				L347.6,315.6z"/>
		</g>
	</g>
	<g>
		<g>
			<g>
				<path d="M385.5,180.4c-11.4,0-22.8,0-34.2,0c-5.5,0-10.8-0.3-16.1,1.4c-11.6,3.6-18.8,14.7-19.2,26.5c-0.4,11.4,7.6,22,17.9,26
					c5.4,2.1,11,1.9,16.6,1.9c11.6,0,23.3,0,34.9,0c9.7,0,9.7-15,0-15c-9.7,0-19.4,0-29,0c-10.2,0-25,1.6-25.4-12.9
					c-0.2-7.1,6.1-12.9,13-12.9c3.9,0,7.7,0,11.6,0c10,0,20,0,29.9,0C395.2,195.4,395.2,180.4,385.5,180.4L385.5,180.4z"/>
			</g>
		</g>
		<g>
			<g>
				<path d="M393,228.6c0-0.3,0-0.7,0-1c0-4.1-3.4-7.5-7.5-7.5c-4.1,0-7.5,3.4-7.5,7.5c0,0.3,0,0.7,0,1c0,4.1,3.4,7.5,7.5,7.5
					C389.6,236.1,393,232.7,393,228.6L393,228.6z"/>
			</g>
		</g>
	</g>
	<g>
		<g>
			<g>
				<path d="M447.2,228.2c0-13.4,0-26.9,0-40.3c0-4.1-3.4-7.5-7.5-7.5c-12.1,0-24.3,0-36.4,0c-15.4,0-31.6-1.4-43.4,10.6
					c-7.9,8-9,20.1-3.4,29.7c6,10.1,18.7,15,29.9,15c12.5,0,24.9,0,37.4,0c5.3,0,10.6,0,15.9,0c9.7,0,9.7-15,0-15
					c-12.1,0-24.3,0-36.4,0c-11.1,0-31.6,3-35.3-11.2c-2.5-9.6,11.7-14,18.4-14.2c4.1-0.1,8.2,0,12.4,0c13.5,0,26.9,0,40.4,0
					c0.2,0,0.4,0,0.6,0c-2.5-2.5-5-5-7.5-7.5c0,13.4,0,26.9,0,40.3C432.2,237.9,447.2,237.9,447.2,228.2z"/>
			</g>
		</g>
	</g>
	<g>
		<g>
			<g>
				<path d="M131.3,87c0-21.5,0-43,0-64.4c0-9.7-15-9.7-15,0c0,21.5,0,43,0,64.4C116.3,96.7,131.3,96.7,131.3,87L131.3,87z"/>
			</g>
		</g>
		<g>
			<g>
				<path d="M91.6,159.6c-9.6-13.5-11-30.5-2.7-45c7.1-12.5,20.7-19.8,35-20c14.4-0.2,27.6,7.9,35,20c8.6,14.2,6.6,31.8-2.7,45
					c-5.6,7.9,7.4,15.4,13,7.6c12.6-17.8,13.4-41.3,2.7-60.2c-9.7-17.1-28.5-27.2-47.9-27.5C104.2,79.3,86,90.4,75.9,107
					c-11.1,18.4-9.6,42.8,2.7,60.2C84.2,175,97.2,167.5,91.6,159.6L91.6,159.6z"/>
			</g>
		</g>
		<g>
			<g>
				<path d="M162.5,155.9c-25.8,0-51.6,0-77.4,0c-9.7,0-9.7,15,0,15c25.8,0,51.6,0,77.4,0C172.2,170.9,172.2,155.9,162.5,155.9
					L162.5,155.9z"/>
			</g>
		</g>
	</g>
</g>
</svg>
